<svg xmlns="http://www.w3.org/2000/svg" fill="none" viewBox="0 0 280 280"><mask id="a"><rect width="280" height="280" fill="#fff" rx="0" ry="0"/></mask><g mask="url(#a)"><path fill="#ae5d29" d="M140 36a56 56 0 0 0-56 56v6.17A12 12 0 0 0 74 110v14a12 12 0 0 0 10.3 11.88 56 56 0 0 0 31.7 44.73v18.4h-4a72 72 0 0 0-72 72v9h200v-9a72 72 0 0 0-72-72h-4v-18.39a56 56 0 0 0 31.7-44.73A12 12 0 0 0 206 124v-14a12 12 0 0 0-10-11.83V92a56 56 0 0 0-56-56"/><path fill="#000" fill-opacity=".1" d="M116 180.61v8a56 56 0 0 0 24 5.39 56 56 0 0 0 24-5.39v-8a56 56 0 0 1-24 5.39 56 56 0 0 1-24-5.39"/><path fill="#ff5c5c" d="M100.68 199.94A72 72 0 0 0 40 271.05V280h200v-8.95a72 72 0 0 0-60.68-71.11 24 24 0 0 1-7.56 13.6l-29.08 26.23a4 4 0 0 1-5.36 0l-29.08-26.23a24 24 0 0 1-7.56-13.6"/><g transform="translate(86 134)"><rect width="64" height="26" x="22" y="7" fill="#000" fill-opacity=".6" rx="13"/><rect width="60" height="22" x="24" y="9" fill="#fff" rx="11"/><path fill="#e6e6e6" d="M24.18 18H32V9.41A11 11 0 0 1 35 9h1v9h9V9h4v9h9V9h4v9h9V9h2q1.02 0 2 .18V18h8.82l.05.28v3.44l-.05.28H75v8.82q-.98.18-2 .18h-2v-9h-9v9h-4v-9h-9v9h-4v-9h-9v9h-1a11 11 0 0 1-3-.41V22h-7.82a11 11 0 0 1 0-4"/></g><path fill="#000" fill-opacity=".16" fill-rule="evenodd" d="M128 130c0 4.42 5.37 8 12 8s12-3.58 12-8" clip-rule="evenodd"/><path fill="#000" fill-opacity=".6" d="m118.5 120.7-5.5-5.5-5.5 5.5c-.4.4-1.1.4-1.6 0l-1.6-1.6c-.4-.4-.4-1.1 0-1.6l5.5-5.5-5.5-5.5c-.4-.5-.4-1.2 0-1.6l1.6-1.6c.4-.4 1.1-.4 1.6 0l5.5 5.5 5.5-5.5c.4-.4 1.1-.4 1.6 0l1.6 1.6c.4.4.4 1.1 0 1.6l-5.5 5.5 5.5 5.5c.4.4.4 1.1 0 1.6l-1.6 1.6c-.4.4-1.1.4-1.6 0m54 0-5.5-5.5-5.5 5.5c-.4.4-1.1.4-1.6 0l-1.6-1.6c-.4-.4-.4-1.1 0-1.6l5.5-5.5-5.5-5.5c-.4-.5-.4-1.2 0-1.6l1.6-1.6c.4-.4 1.1-.4 1.6 0l5.5 5.5 5.5-5.5c.4-.4 1.1-.4 1.6 0l1.6 1.6c.4.4.4 1.1 0 1.6l-5.5 5.5 5.5 5.5c.4.4.4 1.1 0 1.6l-1.6 1.6c-.4.4-1.1.4-1.6 0"/><path fill="#000" fill-opacity=".6" fill-rule="evenodd" d="M122.66 93.1c-5 .35-9.92.08-14.92-.13-3.83-.16-7.72-.68-11.37 1.01-.7.32-4.53 2.28-4.44 3.35.07.85 3.93 2.2 4.63 2.44 3.67 1.29 7.18.9 10.95.66 4.64-.27 9.25-.07 13.87-.2 3.12-.1 7.92-.63 9.46-4.4.46-1.14.1-3.42-.36-4.66-.19-.5-.72-.69-1.13-.4a15 15 0 0 1-6.68 2.32Zm34.68 0c5 .35 9.92.08 14.92-.13 3.83-.16 7.72-.68 11.37 1.01.7.32 4.53 2.28 4.44 3.35-.07.85-3.93 2.2-4.63 2.44-3.67 1.29-7.18.9-10.95.66-4.63-.27-9.24-.07-13.86-.2-3.12-.1-7.92-.63-9.46-4.4-.46-1.14-.1-3.42.36-4.66.18-.5.72-.69 1.13-.4a15 15 0 0 0 6.68 2.32Z" clip-rule="evenodd"/><g transform="translate(7)"><circle cx="133" cy="20" r="20" fill="#f4f4f4"/><path fill="#ffdeb5" fill-rule="evenodd" d="M67 78a66 66 0 1 1 132 0v5H67z" clip-rule="evenodd"/><path fill="#000" fill-opacity=".1" fill-rule="evenodd" d="M64 69.77a7 7 0 0 1 3.05-5.96c7.8-5.18 30.42-17.8 66.02-17.8s58.14 12.62 65.9 17.81a7 7 0 0 1 3.03 5.95v30.2c0 3.3-3.9 5.38-6.78 3.75C184.84 97.83 163.1 88 133.8 88a133.6 133.6 0 0 0-63.17 15.98c-2.85 1.56-6.63-.5-6.63-3.75z" clip-rule="evenodd"/><path fill="#f4f4f4" fill-rule="evenodd" d="M64 67.77a7 7 0 0 1 3.05-5.96c7.8-5.18 30.42-17.8 66.02-17.8s58.14 12.62 65.9 17.81a7 7 0 0 1 3.03 5.95v30.2c0 3.3-3.9 5.38-6.78 3.75C184.84 95.83 163.1 86 133.8 86a133.6 133.6 0 0 0-63.17 15.98c-2.85 1.56-6.63-.5-6.63-3.75z" clip-rule="evenodd"/></g></g></svg>