<svg viewBox="0 0 6.39999 6.39999" xmlns="http://www.w3.org/2000/svg" xmlns:xlink="http://www.w3.org/1999/xlink" width="6.399994" height="6.399994" fill="none" customFrame="#000000">
	<g id="组合 5508">
		<path id="矢量 15537" d="M3.5 3.5L3.5 6.1C3.5 6.26575 3.36575 6.4 3.2 6.4C3.03425 6.4 2.9 6.26575 2.9 6.1L2.9 3.5L0.3 3.5C0.13425 3.5 0 3.36575 0 3.2C0 3.03425 0.13425 2.9 0.3 2.9L2.9 2.9L2.9 0.3C2.9 0.13425 3.03425 0 3.2 0C3.36575 0 3.5 0.13425 3.5 0.3L3.5 2.9L6.1 2.9C6.26575 2.9 6.4 3.03425 6.4 3.2C6.4 3.36575 6.26575 3.5 6.1 3.5L3.5 3.5Z" fill="rgb(144,80,21)" fill-rule="nonzero" />
	</g>
</svg>
