<svg viewBox="0 0 12 8.39999" xmlns="http://www.w3.org/2000/svg" xmlns:xlink="http://www.w3.org/1999/xlink" width="12.000000" height="8.399994" fill="none" customFrame="#000000">
	<g id="组合 5492">
		<path id="矢量 15228" d="M1.8 3.6C2.46188 3.6 3 3.06188 3 2.4C3 1.73813 2.46188 1.2 1.8 1.2C1.13812 1.2 0.6 1.73813 0.6 2.4C0.6 3.06188 1.13813 3.6 1.8 3.6ZM10.2 3.6C10.8619 3.6 11.4 3.06188 11.4 2.4C11.4 1.73813 10.8619 1.2 10.2 1.2C9.53813 1.2 9 1.73813 9 2.4C9 3.06188 9.53813 3.6 10.2 3.6ZM10.8 4.2L9.6 4.2C9.27 4.2 8.97188 4.33313 8.75438 4.54875C9.51 4.96313 10.0463 5.71125 10.1625 6.6L11.4 6.6C11.7319 6.6 12 6.33188 12 6L12 5.4C12 4.73813 11.4619 4.2 10.8 4.2ZM6 4.2C7.16062 4.2 8.1 3.26063 8.1 2.1C8.1 0.939375 7.16062 0 6 0C4.83938 0 3.9 0.939375 3.9 2.1C3.9 3.26063 4.83938 4.2 6 4.2ZM7.44 4.8L7.28438 4.8C6.89438 4.9875 6.46125 5.1 6 5.1C5.53875 5.1 5.1075 4.9875 4.71563 4.8L4.56 4.8C3.3675 4.8 2.4 5.7675 2.4 6.96L2.4 7.5C2.4 7.99688 2.80313 8.4 3.3 8.4L8.7 8.4C9.19688 8.4 9.6 7.99688 9.6 7.5L9.6 6.96C9.6 5.7675 8.6325 4.8 7.44 4.8ZM3.24563 4.54875C3.02813 4.33313 2.73 4.2 2.4 4.2L1.2 4.2C0.538125 4.2 0 4.73813 0 5.4L0 6C0 6.33188 0.268125 6.6 0.6 6.6L1.83563 6.6C1.95375 5.71125 2.49 4.96313 3.24563 4.54875L3.24563 4.54875Z" fill="rgb(51,51,51)" fill-opacity="0.709999979" fill-rule="nonzero" />
	</g>
</svg>

