<svg viewBox="0 0 1024 640" xmlns="http://www.w3.org/2000/svg">
  <path d="M832 144h-94.4l-76.8-76.8A129.5 129.5 0 0 0 568.8 29H456.4c-30.6 0-60.2 10.9-83.4 30.9L330.6 96H192c-35.3 0-64 28.7-64 64v224c0 35.3 28.7 64 64 64h38.5l167.1 148.7a137 137 0 0 0 188.3-6.9l20.5 17.2c44.5 37.3 110.9 31.4 148.2-13.1l106.1-126.7H832c35.3 0 64-28.7 64-64V208c0-35.3-28.7-64-64-64zM401.1 108.5A84 84 0 0 1 456.4 88h112.4c18.3 0 35.9 7.3 48.8 20.2l128 128c10.5 10.5 10.5 27.6 0 38.1s-27.6 10.5-38.1 0L590.1 156.9c-24.8-24.8-65-24.8-89.8 0L390.6 266.6c-24.4 24.4-64.1 24.4-88.5 0s-24.4-64.1 0-88.5l99-69.6zM251.4 390.4H192a6.4 6.4 0 0 1-6.4-6.4V160c0-3.5 2.9-6.4 6.4-6.4h72.2l-3.1 2.2a122.4 122.4 0 0 0-1.6 153.6c47 47 123.2 47 170.2 0l109.7-109.7a6.9 6.9 0 0 1 9.8 0l117.4 117.4c33 33 86.5 33 119.6 0s33-86.5 0-119.6l-6-6H832c3.5 0 6.4 2.9 6.4 6.4v195.2c0 3.5-2.9 6.4-6.4 6.4h-98.6l-100.1 119.5c-16.8 20.1-46.7 22.7-66.8 5.9l-57.6-48.2-2.8 3.3-1-.8-61.2 72.2a79.4 79.4 0 0 1-108.9 4L251.4 390.4z" fill="#4B5563"/>
</svg>

